<svg width="163" height="66" viewBox="0 0 163 66" fill="none" xmlns="http://www.w3.org/2000/svg">
<g clip-path="url(#clip0_16562_5)">
<path d="M28.1595 46.9607H26.655C26.3359 46.9607 26.108 47.0214 25.9408 47.1277C25.7888 47.2339 25.6217 47.4465 25.4393 47.7653L18.616 61.0352L11.7319 47.7653C11.5799 47.4465 11.4127 47.2339 11.2608 47.1277C11.1088 47.0214 10.8657 46.9607 10.5465 46.9607H8.92047C8.51016 46.9607 8.29741 47.0821 8.29741 47.3099C8.29741 47.401 8.343 47.5528 8.44938 47.7653L17.4306 64.6639C17.7042 65.1953 17.9169 65.5597 18.0689 65.7267C18.2209 65.9089 18.3728 66 18.5552 66C18.692 66 18.8135 65.9696 18.8895 65.8937C18.9807 65.8178 19.0871 65.6811 19.2238 65.4686C19.3606 65.256 19.5126 64.9827 19.6646 64.6639L28.6154 47.7653C28.7066 47.5528 28.7674 47.401 28.7674 47.3099C28.7674 47.0821 28.5546 46.9607 28.1443 46.9607H28.1595Z" fill="white"/>
<path d="M51.1673 47.9172C50.8634 47.3706 50.6507 47.0062 50.5291 46.8392C50.4075 46.6722 50.2404 46.5811 50.0732 46.5811C49.8756 46.5811 49.7085 46.6722 49.5717 46.8392C49.4349 47.0062 49.2222 47.3706 48.9182 47.9172L39.9978 64.8157C39.8914 65.0283 39.8458 65.1801 39.8458 65.2712C39.8458 65.499 40.0434 65.6204 40.4385 65.6204H41.9733C42.2925 65.6204 42.5204 65.5597 42.6876 65.4534C42.8395 65.3471 43.0067 65.1346 43.1587 64.8157L50.0124 51.5459L54.2523 59.7598H50.0884C49.8756 59.7598 49.6629 59.8813 49.5717 60.0787L48.903 61.4603C48.7207 61.8399 48.9942 62.2802 49.4197 62.2802H55.544L56.8509 64.8157C57.0333 65.1346 57.1852 65.3471 57.3372 65.4534C57.4892 65.5597 57.7171 65.6204 58.0363 65.6204H59.6927C60.103 65.6204 60.3158 65.499 60.3158 65.2712C60.3158 65.1801 60.2702 65.0283 60.1638 64.8157L51.1522 47.9172H51.1673Z" fill="white"/>
<path d="M89.1895 63.0849H80.4514C80.3147 63.0849 80.2235 63.0697 80.1627 63.0241C80.1171 62.9786 80.0867 62.9027 80.0867 62.7964V47.5528C80.0867 47.325 80.0411 47.1732 79.9347 47.0821C79.8284 47.0062 79.6612 46.9607 79.4333 46.9607H77.7768C77.5337 46.9607 77.3665 47.0062 77.2753 47.0821C77.1841 47.158 77.1234 47.325 77.1234 47.5528V65.0435C77.1234 65.2712 77.1689 65.423 77.2753 65.5141C77.3665 65.5901 77.5489 65.6356 77.7768 65.6356H89.1895C89.4327 65.6356 89.5999 65.5901 89.691 65.5141C89.7822 65.4382 89.843 65.2864 89.843 65.0435V63.677C89.843 63.4493 89.7974 63.2974 89.691 63.2063C89.5999 63.1304 89.4175 63.0849 89.1895 63.0849Z" fill="white"/>
<path d="M122.577 46.9607H121.072C120.753 46.9607 120.525 47.0214 120.358 47.1277C120.206 47.2339 120.039 47.4465 119.857 47.7653L113.033 61.0352L106.149 47.7653C105.997 47.4465 105.83 47.2339 105.678 47.1277C105.526 47.0214 105.283 46.9607 104.964 46.9607H103.338C102.927 46.9607 102.715 47.0821 102.715 47.3099C102.715 47.401 102.76 47.5528 102.867 47.7653L111.848 64.6639C112.121 65.1953 112.334 65.5597 112.486 65.7267C112.638 65.9089 112.79 66 112.972 66C113.109 66 113.231 65.9696 113.307 65.8937C113.398 65.8178 113.504 65.6811 113.641 65.4686C113.778 65.256 113.93 64.9827 114.082 64.6639L123.033 47.7653C123.124 47.5528 123.185 47.401 123.185 47.3099C123.185 47.0821 122.972 46.9607 122.562 46.9607H122.577Z" fill="white"/>
<path d="M152.393 63.2063C152.302 63.1304 152.119 63.0849 151.891 63.0849H143.32C143.183 63.0849 143.092 63.0697 143.032 63.0241C142.986 62.9786 142.956 62.9027 142.956 62.7964V57.7861C142.956 57.6798 142.986 57.6039 143.032 57.5583C143.077 57.5128 143.168 57.4976 143.32 57.4976H150.843C151.086 57.4976 151.253 57.452 151.344 57.3609C151.435 57.2698 151.496 57.118 151.496 56.9054V55.5693C151.496 55.3416 151.45 55.1898 151.344 55.0987C151.253 55.0228 151.071 54.9772 150.843 54.9772H143.32C143.183 54.9772 143.092 54.962 143.032 54.9165C142.986 54.8709 142.956 54.795 142.956 54.6584V49.7847C142.956 49.6784 142.986 49.6025 143.032 49.5569C143.077 49.5114 143.168 49.4962 143.32 49.4962H151.861C152.104 49.4962 152.271 49.4506 152.362 49.3747C152.453 49.2988 152.514 49.1318 152.514 48.9041V47.5376C152.514 47.3099 152.469 47.158 152.362 47.0669C152.256 46.991 152.089 46.9455 151.861 46.9455H140.661C140.418 46.9455 140.251 46.991 140.159 47.0669C140.068 47.1429 140.007 47.3099 140.007 47.5376V65.0283C140.007 65.256 140.053 65.4079 140.159 65.499C140.251 65.5749 140.433 65.6204 140.661 65.6204H151.891C152.134 65.6204 152.302 65.5749 152.393 65.499C152.484 65.423 152.545 65.2712 152.545 65.0283V63.6618C152.545 63.4341 152.499 63.2823 152.393 63.1912V63.2063Z" fill="white"/>
<path d="M76.7434 28.6957V35.5128H144.095L147.788 28.6957H76.7434Z" fill="#E03643"/>
<path d="M76.8498 0.531401V7.34852H159.322L163 0.531401H76.8498Z" fill="#E03643"/>
<path d="M76.774 14.6211V21.423H151.709L155.387 14.6211H76.774Z" fill="#E03643"/>
<path d="M35.9098 0.865425C35.6819 0.68323 35.3324 0.592133 34.8613 0.592133H29.8311C29.3448 0.592133 29.0105 0.68323 28.813 0.865425C28.6154 1.04762 28.509 1.35128 28.509 1.79158V20.1477C28.509 23.1387 27.7188 25.4465 26.1535 27.0863C24.5883 28.726 22.3392 29.5459 19.4366 29.5459C16.534 29.5459 14.2393 28.726 12.7196 27.0863C11.1848 25.4465 10.4249 23.1083 10.4249 20.1021V1.79158C10.4249 1.36646 10.3186 1.04762 10.0906 0.865425C9.86266 0.68323 9.51313 0.592133 9.04203 0.592133H4.01192C4.01192 0.592133 3.93594 0.592133 3.89035 0.592133L0.759824 0.57695C0.197545 0.592133 -0.167176 1.16908 0.0759717 1.65493L0.471086 2.45963H0.45589C0.45589 2.45963 0.531873 2.59627 0.668644 2.85438L0.972578 3.4617C0.972578 3.4617 1.00297 3.50725 1.03336 3.53761C1.65643 4.82816 2.59863 6.99931 2.68981 8.68461V20.5728C2.68981 24.0193 3.38886 26.8889 4.77176 29.1815C6.15466 31.4741 8.08464 33.1746 10.5465 34.2981C13.0236 35.4217 15.8958 35.9834 19.1782 35.9834C22.4607 35.9834 25.5001 35.4065 28.0531 34.2374C30.6214 33.0835 32.6273 31.3375 34.0862 29.0145C35.5451 26.6915 36.2746 23.8371 36.2746 20.4513V1.79158C36.2746 1.36646 36.1682 1.04762 35.9402 0.865425H35.9098Z" fill="white"/>
<path d="M65.0876 17.0807C63.2791 16.2001 60.954 15.441 58.1123 14.8185C56.2279 14.3934 54.7842 13.9834 53.766 13.619C52.7478 13.2547 51.988 12.7992 51.4713 12.283C50.9546 11.7516 50.6963 11.0683 50.6963 10.2484C50.6963 9.09455 51.2281 8.15321 52.2767 7.46998C53.3253 6.77157 54.7538 6.42236 56.5622 6.42236C58.1882 6.42236 59.7383 6.69565 61.2124 7.21187C62.4737 7.66736 63.7654 8.28986 65.0572 9.06418L65.3459 9.21601C65.9386 9.53485 66.6984 9.33747 67.0631 8.76053L69.4186 5.22291C69.7833 4.64596 69.4946 3.97792 68.9475 3.58316C65.3003 1.18427 61.1972 -0.0151825 56.623 -0.0151825C53.9332 -0.0151825 51.5169 0.409938 49.4045 1.26018C47.277 2.11042 45.6206 3.34024 44.42 4.93444C43.2195 6.54382 42.6268 8.45687 42.6268 10.6736C42.6268 12.6625 43.0979 14.3175 44.0401 15.6536C44.9823 16.9745 46.3196 18.0525 48.0824 18.8875C49.83 19.7226 52.0488 20.4362 54.7538 21.0283C56.7749 21.499 58.3402 21.9241 59.4344 22.3188C60.5285 22.7136 61.3036 23.1691 61.7899 23.6549C62.2762 24.156 62.5041 24.7937 62.5041 25.5983C62.5041 26.8282 61.9114 27.7999 60.7413 28.5135C59.5559 29.2271 57.8843 29.5763 55.7112 29.5763C53.9787 29.5763 52.2767 29.2878 50.5899 28.7108C48.903 28.1339 47.3682 27.3444 45.9701 26.3423C45.6054 26.0386 45.271 25.902 44.9671 25.902C44.8151 25.902 44.6632 25.9627 44.496 26.069C44.3288 26.1905 44.1769 26.3423 44.0249 26.5397L41.6998 29.7736C41.4111 30.1988 41.2591 30.5176 41.2591 30.715C41.2591 31.0186 41.5174 31.3527 42.0341 31.717C43.7969 33.038 45.8485 34.0856 48.1736 34.8447C50.4987 35.6039 52.991 35.9834 55.6352 35.9834C58.553 35.9834 61.1364 35.5431 63.3855 34.6625C65.6346 33.7819 67.3823 32.5369 68.6436 30.9124C69.9049 29.2878 70.528 27.3596 70.528 25.1429C70.528 23.245 70.0721 21.6508 69.1755 20.3451C68.2637 19.0393 66.9112 17.9462 65.1027 17.0656L65.0876 17.0807Z" fill="white"/>
</g>
<defs>
<clipPath id="clip0_16562_5">
<rect width="163" height="66" fill="white"/>
</clipPath>
</defs>
</svg>
