<svg width="203" height="83" viewBox="0 0 203 83" fill="none" xmlns="http://www.w3.org/2000/svg">
<path d="M35.0705 58.3643H33.1968C32.7994 58.3643 32.5155 58.4397 32.3073 58.5718C32.118 58.7038 31.9098 58.9679 31.6827 59.364L23.185 75.8508L14.6115 59.364C14.4222 58.9679 14.2141 58.7038 14.0248 58.5718C13.8355 58.4397 13.5327 58.3643 13.1353 58.3643H11.1102C10.5992 58.3643 10.3342 58.5152 10.3342 58.7981C10.3342 58.9113 10.391 59.0999 10.5235 59.364L21.7087 80.3592C22.0494 81.0194 22.3144 81.4721 22.5036 81.6796C22.6929 81.906 22.8821 82.0192 23.1093 82.0192C23.2796 82.0192 23.431 81.9815 23.5256 81.8871C23.6392 81.7928 23.7717 81.6231 23.942 81.359C24.1123 81.0949 24.3016 80.7553 24.4909 80.3592L35.6383 59.364C35.7518 59.0999 35.8275 58.9113 35.8275 58.7981C35.8275 58.5152 35.5626 58.3643 35.0516 58.3643H35.0705Z" fill="white"/>
<path d="M63.7244 59.5526C63.3458 58.8735 63.0809 58.4208 62.9295 58.2133C62.7781 58.0058 62.5699 57.8926 62.3617 57.8926C62.1157 57.8926 61.9075 58.0058 61.7371 58.2133C61.5668 58.4208 61.3018 58.8735 60.9233 59.5526L49.8138 80.5477C49.6813 80.8118 49.6245 81.0005 49.6245 81.1137C49.6245 81.3966 49.8706 81.5475 50.3626 81.5475H52.2742C52.6716 81.5475 52.9555 81.4721 53.1637 81.34C53.3529 81.208 53.5611 80.9439 53.7504 80.5477L62.286 64.061L67.5663 74.2662H62.3806C62.1157 74.2662 61.8507 74.4171 61.7371 74.6623L60.9044 76.3789C60.6773 76.8505 61.018 77.3975 61.5479 77.3975H69.175L70.8027 80.5477C71.0298 80.9439 71.219 81.208 71.4083 81.34C71.5976 81.4721 71.8815 81.5475 72.2789 81.5475H74.3418C74.8528 81.5475 75.1178 81.3966 75.1178 81.1137C75.1178 81.0005 75.061 80.8118 74.9285 80.5477L63.7054 59.5526H63.7244Z" fill="white"/>
<path d="M111.077 78.3974H100.195C100.025 78.3974 99.9109 78.3785 99.8352 78.3219C99.7785 78.2653 99.7406 78.171 99.7406 78.039V59.0999C99.7406 58.817 99.6838 58.6283 99.5514 58.5152C99.4189 58.4208 99.2107 58.3643 98.9268 58.3643H96.8639C96.5611 58.3643 96.3529 58.4208 96.2393 58.5152C96.1257 58.6095 96.05 58.817 96.05 59.0999V80.8308C96.05 81.1137 96.1068 81.3024 96.2393 81.4156C96.3529 81.5099 96.58 81.5665 96.8639 81.5665H111.077C111.38 81.5665 111.588 81.5099 111.702 81.4156C111.815 81.3212 111.891 81.1326 111.891 80.8308V79.1331C111.891 78.8501 111.834 78.6615 111.702 78.5483C111.588 78.454 111.361 78.3974 111.077 78.3974Z" fill="white"/>
<path d="M152.658 58.3643H150.784C150.387 58.3643 150.103 58.4397 149.894 58.5718C149.705 58.7038 149.497 58.9679 149.27 59.364L140.772 75.8508L132.199 59.364C132.009 58.9679 131.801 58.7038 131.612 58.5718C131.423 58.4397 131.12 58.3643 130.722 58.3643H128.697C128.186 58.3643 127.921 58.5152 127.921 58.7981C127.921 58.9113 127.978 59.0999 128.111 59.364L139.296 80.3592C139.637 81.0194 139.902 81.4721 140.091 81.6796C140.28 81.906 140.469 82.0192 140.696 82.0192C140.867 82.0192 141.018 81.9815 141.113 81.8871C141.226 81.7928 141.359 81.6231 141.529 81.359C141.7 81.0949 141.889 80.7553 142.078 80.3592L153.225 59.364C153.339 59.0999 153.415 58.9113 153.415 58.7981C153.415 58.5152 153.15 58.3643 152.639 58.3643H152.658Z" fill="white"/>
<path d="M189.79 78.5481C189.677 78.4538 189.45 78.3972 189.166 78.3972H178.492C178.321 78.3972 178.208 78.3783 178.132 78.3217C178.075 78.2652 178.037 78.1708 178.037 78.0388V71.8138C178.037 71.6818 178.075 71.5874 178.132 71.5309C178.189 71.4743 178.302 71.4554 178.492 71.4554H187.86C188.163 71.4554 188.371 71.3988 188.484 71.2856C188.598 71.1724 188.674 70.9838 188.674 70.7197V69.0597C188.674 68.7768 188.617 68.5881 188.484 68.475C188.371 68.3806 188.144 68.324 187.86 68.324H178.492C178.321 68.324 178.208 68.3052 178.132 68.2486C178.075 68.192 178.037 68.0977 178.037 67.9279V61.8727C178.037 61.7407 178.075 61.6463 178.132 61.5897C178.189 61.5332 178.302 61.5143 178.492 61.5143H189.128C189.431 61.5143 189.639 61.4577 189.753 61.3634C189.866 61.2691 189.942 61.0616 189.942 60.7786V59.0809C189.942 58.7979 189.885 58.6093 189.753 58.4961C189.62 58.4018 189.412 58.3452 189.128 58.3452H175.18C174.877 58.3452 174.669 58.4018 174.555 58.4961C174.441 58.5904 174.366 58.7979 174.366 59.0809V80.8117C174.366 81.0947 174.423 81.2833 174.555 81.3965C174.669 81.4908 174.896 81.5474 175.18 81.5474H189.166C189.469 81.5474 189.677 81.4908 189.79 81.3965C189.904 81.3022 189.98 81.1136 189.98 80.8117V79.114C189.98 78.8311 189.923 78.6424 189.79 78.5292V78.5481Z" fill="white"/>
<path d="M95.5769 35.6709V44.1406H179.457L184.056 35.6709H95.5769Z" fill="#E03643"/>
<path d="M95.7095 0.679199V9.14895H198.421L203.001 0.679199H95.7095Z" fill="#E03643"/>
<path d="M95.6147 18.1846V26.6355H188.939L193.519 18.1846H95.6147Z" fill="#E03643"/>
<path d="M44.7229 1.09425C44.439 0.867885 44.0037 0.754703 43.417 0.754703H37.1525C36.5468 0.754703 36.1305 0.867885 35.8844 1.09425C35.6384 1.32061 35.5059 1.69788 35.5059 2.24493V25.051C35.5059 28.7671 34.5218 31.6344 32.5724 33.6717C30.623 35.7089 27.822 36.7276 24.2071 36.7276C20.5922 36.7276 17.7344 35.7089 15.8418 33.6717C13.9303 31.6344 12.984 28.7294 12.984 24.9944V2.24493C12.984 1.71675 12.8515 1.32061 12.5676 1.09425C12.2837 0.867885 11.8484 0.754703 11.2617 0.754703H4.99724C4.99724 0.754703 4.90261 0.754703 4.84583 0.754703L0.947082 0.73584C0.246821 0.754703 -0.207402 1.47152 0.0954131 2.07515L0.587488 3.07492H0.568563C0.568563 3.07492 0.663192 3.2447 0.833526 3.56538L1.21205 4.31992C1.21205 4.31992 1.2499 4.37651 1.28775 4.41424C2.06371 6.01764 3.23712 8.71514 3.35068 10.809V25.5792C3.35068 29.8612 4.22128 33.4264 5.94354 36.2748C7.6658 39.1232 10.0694 41.236 13.1354 42.6319C16.2203 44.0278 19.7974 44.7257 23.8854 44.7257C27.9734 44.7257 31.7586 44.0089 34.9381 42.5564C38.1366 41.1228 40.6348 38.9535 42.4517 36.0673C44.2686 33.1812 45.1771 29.6349 45.1771 25.4283V2.24493C45.1771 1.71675 45.0446 1.32061 44.7607 1.09425H44.7229Z" fill="white"/>
<path d="M81.0607 21.2404C78.8085 20.1463 75.9128 19.2031 72.3737 18.4297C70.0269 17.9015 68.2289 17.3922 66.9608 16.9395C65.6928 16.4868 64.7465 15.9209 64.103 15.2795C63.4595 14.6193 63.1378 13.7704 63.1378 12.7518C63.1378 11.3182 63.8002 10.1486 65.1061 9.29975C66.412 8.43202 68.191 7.99816 70.4432 7.99816C72.4683 7.99816 74.3987 8.3377 76.2346 8.97907C77.8054 9.54497 79.4141 10.3184 81.0228 11.2804L81.3824 11.4691C82.1205 11.8652 83.0668 11.62 83.5211 10.9032L86.4546 6.50794C86.9088 5.79112 86.5492 4.96112 85.8679 4.47067C81.3257 1.49022 76.2156 0 70.5189 0C67.169 0 64.1598 0.52818 61.5291 1.58454C58.8794 2.6409 56.8165 4.16885 55.3214 6.14953C53.8262 8.14907 53.0881 10.5259 53.0881 13.28C53.0881 15.7511 53.6748 17.8072 54.8482 19.4672C56.0216 21.1084 57.6871 22.4477 59.8825 23.4852C62.059 24.5227 64.8222 25.4092 68.191 26.1449C70.7082 26.7297 72.6576 27.2579 74.0202 27.7483C75.3829 28.2388 76.3481 28.8047 76.9538 29.4083C77.5594 30.0308 77.8433 30.8231 77.8433 31.8229C77.8433 33.3508 77.1052 34.5581 75.6479 35.4447C74.1716 36.3313 72.0898 36.7651 69.3834 36.7651C67.2258 36.7651 65.1061 36.4067 63.0053 35.6899C60.9045 34.9731 58.993 33.9922 57.2518 32.7472C56.7976 32.3699 56.3812 32.2001 56.0027 32.2001C55.8134 32.2001 55.6242 32.2756 55.416 32.4076C55.2078 32.5585 55.0186 32.7472 54.8293 32.9924L51.9336 37.0104C51.574 37.5385 51.3848 37.9347 51.3848 38.1799C51.3848 38.5572 51.7065 38.9722 52.35 39.4249C54.5454 41.066 57.1004 42.3676 59.9961 43.3108C62.8918 44.254 65.9956 44.7256 69.2887 44.7256C72.9225 44.7256 76.1399 44.1785 78.941 43.0844C81.742 41.9903 83.9185 40.4435 85.4894 38.4251C87.0602 36.4067 87.8362 34.011 87.8362 31.257C87.8362 28.899 87.2684 26.9183 86.1518 25.2961C85.0162 23.6738 83.3318 22.3156 81.0796 21.2215L81.0607 21.2404Z" fill="white"/>
</svg>
