<svg width="125" height="385" viewBox="0 0 125 385" fill="none" xmlns="http://www.w3.org/2000/svg">
<g clip-path="url(#clip0_169_1662)">
<path d="M7.42475 29.3678C5.39058 28.2615 3.96666 27.0546 3.2547 25.9482C2.54274 24.8419 2.1359 23.1322 2.1359 20.819L2.1359 4.02295C2.1359 1.30744 2.94957 -0.100596 4.57691 -0.100596C5.18716 -0.100596 6.10254 0.201131 7.52646 0.804571L116.558 59.4396C120.016 61.25 122.254 62.658 123.373 63.7643C124.492 64.8707 125.102 66.1781 125.102 67.5862C125.102 68.8937 124.491 70 123.271 71.2069C122.05 72.3132 119.813 73.8218 116.457 75.5316L7.42476 134.569C6.00084 135.172 5.08546 135.474 4.47521 135.474C2.84787 135.474 2.0342 134.066 2.0342 131.351L2.0342 113.448C2.0342 111.336 2.44103 109.626 3.15299 108.52C3.86495 107.414 5.28887 106.307 7.32305 105.101L80.4516 66.9827L7.32305 29.2672L7.42475 29.3678Z" fill="#00000B"/>
<path d="M3.05132 262.6C2.44107 263.304 2.13594 264.511 2.13594 266.221L2.13594 283.419C2.13594 285.029 2.44107 286.236 3.05132 286.94C3.66157 287.644 4.78037 287.945 6.20429 287.945L69.5688 287.945C79.8414 287.945 87.8764 290.661 93.4704 295.991C99.1661 301.322 102.014 308.965 102.014 318.922C102.014 328.879 99.1661 336.623 93.4704 341.853C87.7747 347.083 79.7397 349.698 69.3654 349.698L6.20429 349.698C4.67866 349.698 3.66158 350.1 3.05132 350.804C2.44107 351.508 2.13595 352.715 2.13595 354.425L2.13595 371.623C2.13595 371.623 2.13595 371.925 2.13595 372.026L2.13595 382.687C2.03424 384.296 3.9667 385.603 5.69575 384.698L8.44189 383.391C8.44189 383.391 8.95043 383.089 9.7641 382.687L11.9 381.681C11.9 381.681 12.1034 381.58 12.2051 381.48C16.6803 379.368 24.105 376.149 30.0041 375.848L70.9927 375.848C82.8927 375.848 92.7584 373.534 100.692 368.807C108.625 364.08 114.524 357.543 118.389 349.095C122.254 340.646 124.186 330.891 124.186 319.727C124.186 308.563 122.152 298.204 118.186 289.454C114.219 280.704 108.218 273.865 100.183 268.937C92.1482 264.009 82.3841 261.494 70.6876 261.494L6.20429 261.494C4.67866 261.494 3.66157 261.896 3.05132 262.6Z" fill="#00000B"/>
<path d="M58.9912 163.132C55.9399 169.267 53.3972 177.213 51.1596 186.868C49.634 193.305 48.3117 198.233 47.0912 201.652C45.8707 205.072 44.2434 207.687 42.4126 209.497C40.5819 211.307 38.2426 212.112 35.3947 212.112C31.4281 212.112 28.1734 210.302 25.8341 206.782C23.3931 203.161 22.2743 198.333 22.2743 192.198C22.2743 186.667 23.1897 181.437 25.0205 176.307C26.5461 171.983 28.7837 167.658 31.4281 163.233L31.9366 162.227C33.0554 160.215 32.3435 157.601 30.411 156.394L18.206 148.348C16.1718 147.141 13.9342 148.046 12.5103 149.957C4.27188 162.428 0.10182 176.408 0.101821 191.997C0.101822 201.149 1.52574 209.397 4.4753 216.638C7.42485 223.879 11.5949 229.511 17.1889 233.635C22.7829 237.759 29.3939 239.77 37.0221 239.77C43.8366 239.77 49.634 238.161 54.2109 234.942C58.7877 231.724 62.551 227.198 65.3988 221.164C68.2467 215.23 70.6877 207.586 72.8235 198.434C74.4509 191.494 75.8748 186.164 77.2987 182.543C78.6209 178.822 80.2483 176.207 81.9773 174.497C83.7064 172.888 85.944 172.083 88.6901 172.083C92.9619 172.083 96.3183 174.095 98.7593 178.118C101.2 182.141 102.421 187.874 102.421 195.316C102.421 201.25 101.404 207.083 99.3695 212.715C97.3354 218.448 94.6909 223.678 91.2328 228.506C90.2157 229.813 89.7072 230.919 89.7072 231.925C89.7072 232.428 89.9106 232.931 90.3174 233.534C90.7243 234.138 91.2328 234.641 91.9448 235.144L103.133 243.089C104.658 244.095 105.675 244.598 106.387 244.598C107.405 244.598 108.523 243.692 109.846 241.983C114.422 235.948 117.982 229.009 120.627 221.063C123.271 213.118 124.593 204.669 124.593 195.618C124.593 185.661 123.068 176.911 120.016 169.167C116.965 161.523 112.693 155.488 107.099 151.264C101.505 146.94 94.8943 144.828 87.1645 144.828C80.6551 144.828 75.1628 146.336 70.586 149.454C66.1108 152.572 62.2458 157.198 59.2963 163.333L58.9912 163.132Z" fill="#00000B"/>
</g>
<defs>
<clipPath id="clip0_169_1662">
<rect width="385" height="125" fill="white" transform="translate(1.68289e-05 385) rotate(-90)"/>
</clipPath>
</defs>
</svg>
